<svg width="48" height="48" viewBox="0 0 48 48" fill="none" xmlns="http://www.w3.org/2000/svg">
<path d="M21 44C10.5066 44 2 35.0457 2 24C2 12.9543 10.5066 4 21 4C31.4934 4 40 12.9543 40 24C40 35.0457 31.4934 44 21 44Z" stroke="#2E2D2D" stroke-width="4" stroke-linecap="round" stroke-linejoin="round"/>
<path d="M26 17.6C24.7271 16.5678 23.1388 16.0031 21.5 16C17.358 16 14 19.58 14 24C14 28.42 17.358 32 21.5 32C23.188 32 24.746 31.404 26 30.4" stroke="#2E2D2D" stroke-width="4" stroke-linecap="round" stroke-linejoin="round"/>
<path d="M20 4C28.666 4 46 6 46 24C46 42 28.666 44 20 44" stroke="#2E2D2D" stroke-width="4"/>
</svg>
