<svg width="32" height="32" viewBox="0 0 32 32" fill="none" xmlns="http://www.w3.org/2000/svg">
<path d="M16.1127 31.7723C24.8864 31.7723 31.9989 24.6598 31.9989 15.8862C31.9989 7.11248 24.8864 0 16.1127 0C7.33904 0 0.226562 7.11248 0.226562 15.8862C0.226562 24.6598 7.33904 31.7723 16.1127 31.7723Z" fill="white"/>
<path d="M22.248 9H10.2474C9.68027 9 9.22656 9.45161 9.22656 10.0161V21.9839C9.22656 22.5258 9.68027 23 10.2474 23H22.2026C22.7697 23 23.2234 22.5484 23.2234 21.9839V9.99355C23.2688 9.45161 22.8151 9 22.248 9ZM13.378 20.9H11.3136V14.2387H13.378V20.9ZM12.3345 13.3129C11.6539 13.3129 11.1321 12.771 11.1321 12.1161C11.1321 11.4613 11.6766 10.9194 12.3345 10.9194C12.9923 10.9194 13.5368 11.4613 13.5368 12.1161C13.5368 12.771 13.0377 13.3129 12.3345 13.3129ZM21.2044 20.9H19.1401V17.671C19.1401 16.9032 19.1174 15.8871 18.0512 15.8871C16.9623 15.8871 16.8035 16.7452 16.8035 17.6032V20.9H14.7391V14.2387H16.7581V15.1645H16.7808C17.0757 14.6226 17.7336 14.0806 18.7544 14.0806C20.8642 14.0806 21.2498 15.4355 21.2498 17.2871V20.9H21.2044Z" fill="#2E2D2D"/>
</svg>
