<svg width="40" height="40" viewBox="0 0 40 40" fill="none" xmlns="http://www.w3.org/2000/svg">
<path d="M19.8765 39.7154C30.8454 39.7154 39.7374 30.8248 39.7374 19.8577C39.7374 8.89059 30.8454 0 19.8765 0C8.90764 0 0.015625 8.89059 0.015625 19.8577C0.015625 30.8248 8.90764 39.7154 19.8765 39.7154Z" fill="#2E2D2D"/>
<path d="M27.545 11.25H12.5419C11.8328 11.25 11.2656 11.8145 11.2656 12.5202V27.4798C11.2656 28.1573 11.8328 28.75 12.5419 28.75H27.4883C28.1973 28.75 28.7645 28.1855 28.7645 27.4798V12.4919C28.8212 11.8145 28.254 11.25 27.545 11.25ZM16.4557 26.125H13.8749V17.7984H16.4557V26.125ZM15.1511 16.6411C14.3003 16.6411 13.648 15.9637 13.648 15.1452C13.648 14.3266 14.3286 13.6492 15.1511 13.6492C15.9736 13.6492 16.6543 14.3266 16.6543 15.1452C16.6543 15.9637 16.0303 16.6411 15.1511 16.6411ZM26.2404 26.125H23.6595V22.0887C23.6595 21.129 23.6311 19.8589 22.2982 19.8589C20.9368 19.8589 20.7383 20.9315 20.7383 22.004V26.125H18.1574V17.7984H20.6816V18.9556H20.7099C21.0786 18.2782 21.9011 17.6008 23.1773 17.6008C25.8149 17.6008 26.2971 19.2944 26.2971 21.6089V26.125H26.2404Z" fill="white"/>
</svg>
