<svg width="20" height="20" viewBox="0 0 20 20" fill="none" xmlns="http://www.w3.org/2000/svg">
<rect width="20" height="20" rx="4" fill="#2E2D2D"/>
<path fill-rule="evenodd" clip-rule="evenodd" d="M13.5 7C13.36 7 13.235 7.055 13.145 7.145L8.5 11.795L6.855 10.15C6.765 10.055 6.64 10 6.5 10C6.225 10 6 10.225 6 10.5C6 10.64 6.055 10.765 6.145 10.855L8.145 12.855C8.235 12.945 8.36 13 8.5 13C8.64 13 8.765 12.945 8.855 12.855L13.855 7.855C13.945 7.765 14 7.64 14 7.5C14 7.225 13.775 7 13.5 7Z" fill="white"/>
</svg>
