<svg width="60" height="60" viewBox="0 0 60 60" fill="none" xmlns="http://www.w3.org/2000/svg">
<path d="M29.2889 34.3048L29.3827 33.8672L28.9581 33.7257C28.2126 33.4771 27.5 32.7367 27.5 31.8C27.5 31.0136 27.7599 30.3972 28.1786 29.9786C28.5972 29.5599 29.2136 29.3 30 29.3C30.7911 29.3 31.397 29.5623 31.7711 29.9652C32.1391 30.3615 32.3349 30.9491 32.2068 31.7178L32.2 31.7586V31.8C32.2 32.3173 32.0712 32.7333 31.8456 33.0434C31.6228 33.3498 31.2791 33.5898 30.7787 33.7149L30.3098 33.8322L30.4111 34.3048L31.1815 37.9H28.5185L29.2889 34.3048ZM21.4013 19.4644L21.4 19.4822V19.5V23.5H21C19.9864 23.5 19.1028 23.8401 18.4714 24.4714C17.8401 25.1028 17.5 25.9864 17.5 27V39C17.5 40.0136 17.8401 40.8972 18.4714 41.5285C19.1028 42.1599 19.9864 42.5 21 42.5H39C40.0136 42.5 40.8972 42.1599 41.5286 41.5285C42.1599 40.8972 42.5 40.0136 42.5 39V27C42.5 25.9864 42.1599 25.1028 41.5286 24.4714C40.8972 23.8401 40.0136 23.5 39 23.5H38.6V19.5V19.4822L38.5987 19.4644C38.2798 14.9988 34.4584 11.5 30 11.5C25.5416 11.5 21.7202 14.9988 21.4013 19.4644ZM26.6 19.5C26.6 18.629 27.0331 17.8629 27.7271 17.3011C28.4248 16.7363 29.3635 16.4 30.3 16.4C32.1037 16.4 33.4188 17.6637 33.7 19.5364V23.5H26.6V19.5ZM9.5 23.9943V15.3297L30 6.54398L50.5 15.3297V23.9943C50.2039 36.9197 42.0161 48.3908 30 53.1626C17.9838 48.3908 9.79607 36.9197 9.5 23.9943Z" fill="#2E2D2D" stroke="#2E2D2D"/>
</svg>
