<svg width="40" height="40" viewBox="0 0 40 40" fill="none" xmlns="http://www.w3.org/2000/svg">
<path d="M0 20C0 8.9543 8.95574 0 20.0032 0C31.0507 0 40.0064 8.9543 40.0064 20C40.0064 31.0457 31.0507 40 20.0032 40C8.95574 40 0 31.0457 0 20Z" fill="#2E2D2D"/>
<path d="M24.3003 18H22.7502H22.1966V17.3548V15.3548V14.7097H22.7502H23.9128C24.2172 14.7097 24.4663 14.4516 24.4663 14.0645V10.6452C24.4663 10.2903 24.2449 10 23.9128 10H21.8922C19.7055 10 18.1831 11.8065 18.1831 14.4839V17.2903V17.9355H17.6295H15.7473C15.3598 17.9355 15 18.2903 15 18.8065V21.129C15 21.5806 15.3045 22 15.7473 22H17.5742H18.1278V22.6452V29.129C18.1278 29.5806 18.4322 30 18.8751 30H21.477C21.643 30 21.7814 29.9032 21.8922 29.7742C22.0029 29.6452 22.0859 29.4194 22.0859 29.2258V22.6774V22.0323H22.6672H23.9128C24.2726 22.0323 24.5494 21.7742 24.6047 21.3871V21.3548V21.3226L24.9923 19.0968C25.0199 18.871 24.9923 18.6129 24.8262 18.3548C24.7708 18.1935 24.5217 18.0323 24.3003 18Z" fill="white"/>
</svg>
