<svg width="33" height="32" viewBox="0 0 33 32" fill="none" xmlns="http://www.w3.org/2000/svg">
<path d="M0.226562 16C0.226562 7.16344 7.39001 0 16.2266 0C25.0631 0 32.2266 7.16344 32.2266 16C32.2266 24.8366 25.0631 32 16.2266 32C7.39001 32 0.226562 24.8366 0.226562 16Z" fill="white"/>
<path d="M19.6656 14.4H18.4257H17.9829V13.8839V12.2839V11.7677H18.4257H19.3556C19.5992 11.7677 19.7984 11.5613 19.7984 11.2516V8.51613C19.7984 8.23226 19.6213 8 19.3556 8H17.7394C15.9904 8 14.7727 9.44516 14.7727 11.5871V13.8323V14.3484H14.3299H12.8243C12.5144 14.3484 12.2266 14.6323 12.2266 15.0452V16.9032C12.2266 17.2645 12.4701 17.6 12.8243 17.6H14.2856H14.7284V18.1161V23.3032C14.7284 23.6645 14.9719 24 15.3262 24H17.4073C17.5401 24 17.6508 23.9226 17.7394 23.8194C17.828 23.7161 17.8944 23.5355 17.8944 23.3806V18.1419V17.6258H18.3593H19.3556C19.6434 17.6258 19.8648 17.4194 19.9091 17.1097V17.0839V17.0581L20.2191 15.2774C20.2412 15.0968 20.2191 14.8903 20.0862 14.6839C20.042 14.5548 19.8427 14.4258 19.6656 14.4Z" fill="#2E2D2D"/>
</svg>
