<svg width="60" height="60" viewBox="0 0 60 60" fill="none" xmlns="http://www.w3.org/2000/svg">
<path d="M26.437 27.528V27.5281C26.437 28.9324 26.8281 30.309 27.5663 31.5036C28.3046 32.6982 29.3608 33.6637 30.6168 34.2919L30.6172 34.2921L36.3886 37.1768C36.802 37.3956 37.2545 37.5309 37.7204 37.5749C38.1954 37.6197 38.6747 37.5687 39.1296 37.4248C39.5846 37.2809 40.006 37.0471 40.3689 36.7373C40.7318 36.4274 41.0287 36.0479 41.2421 35.6211C41.4555 35.1943 41.581 34.729 41.6112 34.2527C41.6413 33.7765 41.5755 33.2991 41.4176 32.8488C41.2598 32.3985 41.0131 31.9845 40.6921 31.6314C40.3775 31.2851 39.9978 31.0043 39.5747 30.8048L33.8054 27.9182L33.8047 27.9178C33.7321 27.8816 33.671 27.8258 33.6284 27.7568C33.5857 27.6878 33.5631 27.6083 33.563 27.5272V20C33.563 19.055 33.1876 18.1488 32.5194 17.4806C31.8512 16.8124 30.945 16.437 30 16.437C29.055 16.437 28.1488 16.8124 27.4806 17.4806C26.8124 18.1488 26.437 19.055 26.437 20V27.528ZM11.563 30C11.563 19.8172 19.8172 11.563 30 11.563C40.1828 11.563 48.437 19.8172 48.437 30C48.437 40.1828 40.1828 48.437 30 48.437C19.8172 48.437 11.563 40.1828 11.563 30Z" fill="#2E2D2D" stroke="#2E2D2D" stroke-width="3.12604"/>
</svg>
