<svg width="49" height="48" viewBox="0 0 49 48" fill="none" xmlns="http://www.w3.org/2000/svg">
<path d="M40.372 14.9917C40.2097 14.6009 39.8991 14.2903 39.5083 14.128C39.316 14.046 39.1095 14.0025 38.9005 14H30.9028C30.4786 14 30.0717 14.1685 29.7717 14.4685C29.4718 14.7685 29.3032 15.1753 29.3032 15.5995C29.3032 16.0238 29.4718 16.4306 29.7717 16.7306C30.0717 17.0306 30.4786 17.1991 30.9028 17.1991H35.0456L26.1042 26.1405L20.8417 20.862C20.693 20.7121 20.5161 20.5931 20.3212 20.5119C20.1263 20.4307 19.9172 20.3889 19.706 20.3889C19.4949 20.3889 19.2858 20.4307 19.0909 20.5119C18.896 20.5931 18.7191 20.7121 18.5704 20.862L8.97314 30.4592C8.82322 30.6079 8.70422 30.7848 8.62302 30.9798C8.54181 31.1747 8.5 31.3837 8.5 31.5949C8.5 31.8061 8.54181 32.0151 8.62302 32.21C8.70422 32.405 8.82322 32.5819 8.97314 32.7306C9.12184 32.8805 9.29875 32.9995 9.49367 33.0807C9.68859 33.1619 9.89765 33.2037 10.1088 33.2037C10.32 33.2037 10.529 33.1619 10.724 33.0807C10.9189 32.9995 11.0958 32.8805 11.2445 32.7306L19.706 24.253L24.9685 29.5315C25.1172 29.6814 25.2941 29.8004 25.489 29.8816C25.6839 29.9628 25.893 30.0046 26.1042 30.0046C26.3153 30.0046 26.5244 29.9628 26.7193 29.8816C26.9142 29.8004 27.0911 29.6814 27.2398 29.5315L37.3009 19.4544V23.5972C37.3009 24.0214 37.4694 24.4283 37.7694 24.7283C38.0694 25.0282 38.4762 25.1968 38.9005 25.1968C39.3247 25.1968 39.7315 25.0282 40.0315 24.7283C40.3315 24.4283 40.5 24.0214 40.5 23.5972V15.5995C40.4975 15.3905 40.454 15.184 40.372 14.9917Z" fill="#2E2D2D"/>
</svg>
