<svg width="49" height="48" viewBox="0 0 49 48" fill="none" xmlns="http://www.w3.org/2000/svg">
<path d="M24.5 8C15.684 8 8.5 15.184 8.5 24C8.5 32.816 15.684 40 24.5 40C33.316 40 40.5 32.816 40.5 24C40.5 15.184 33.316 8 24.5 8ZM32.148 20.32L23.076 29.392C22.852 29.616 22.548 29.744 22.228 29.744C21.908 29.744 21.604 29.616 21.38 29.392L16.852 24.864C16.388 24.4 16.388 23.632 16.852 23.168C17.316 22.704 18.084 22.704 18.548 23.168L22.228 26.848L30.452 18.624C30.916 18.16 31.684 18.16 32.148 18.624C32.612 19.088 32.612 19.84 32.148 20.32Z" fill="#2E2D2D"/>
</svg>
