<svg width="49" height="48" viewBox="0 0 49 48" fill="none" xmlns="http://www.w3.org/2000/svg">
<path d="M36.327 13.2302L24.3258 8.22971C23.9602 8.07806 23.5683 8 23.1726 8C22.7768 8 22.3849 8.07806 22.0193 8.22971L10.0181 13.2302C8.89929 13.6927 8.16797 14.7866 8.16797 15.9992C8.16797 28.4067 15.3249 36.9825 22.0131 39.7703C22.7506 40.0766 23.582 40.0766 24.3195 39.7703C29.6763 37.5388 38.1709 29.8318 38.1709 15.9992C38.1709 14.7866 37.4396 13.6927 36.327 13.2302ZM23.1757 35.8949L23.1694 12.0801L34.1643 16.6618C33.958 26.1252 29.0325 32.9821 23.1757 35.8949Z" fill="#2E2D2D"/>
</svg>
