<svg width="49" height="48" viewBox="0 0 49 48" fill="none" xmlns="http://www.w3.org/2000/svg">
<path fill-rule="evenodd" clip-rule="evenodd" d="M8.83203 24C8.83203 15.1632 15.9952 8 24.832 8C33.6688 8 40.832 15.1632 40.832 24C40.832 32.8368 33.6688 40 24.832 40C15.9952 40 8.83203 32.8368 8.83203 24ZM26.432 16C26.432 15.5757 26.2635 15.1687 25.9634 14.8686C25.6633 14.5686 25.2564 14.4 24.832 14.4C24.4077 14.4 24.0007 14.5686 23.7007 14.8686C23.4006 15.1687 23.232 15.5757 23.232 16V22.0224C23.2321 22.9137 23.4802 23.7874 23.9488 24.5455C24.4173 25.3037 25.0877 25.9165 25.8848 26.3152L30.5168 28.6304C30.7054 28.7321 30.9125 28.7949 31.1259 28.815C31.3392 28.8352 31.5544 28.8123 31.7587 28.7476C31.963 28.683 32.1523 28.578 32.3152 28.4389C32.4782 28.2998 32.6115 28.1293 32.7073 27.9377C32.8032 27.746 32.8595 27.537 32.8731 27.3232C32.8866 27.1094 32.857 26.895 32.7861 26.6928C32.7153 26.4905 32.6045 26.3046 32.4604 26.1461C32.3162 25.9875 32.1418 25.8595 31.9472 25.7696L27.3168 23.4528C27.0511 23.32 26.8276 23.1159 26.6713 22.8632C26.515 22.6106 26.4322 22.3195 26.432 22.0224V16Z" fill="#2E2D2D"/>
</svg>
