<svg width="60" height="60" viewBox="0 0 60 60" fill="none" xmlns="http://www.w3.org/2000/svg">
<path d="M49.1899 19.0097L49.1898 19.0097L49.1924 19.0157C49.2583 19.1702 49.2934 19.3361 49.296 19.504V29.4965C49.296 29.8401 49.1595 30.1696 48.9166 30.4125C48.6736 30.6554 48.3441 30.7919 48.0006 30.7919C47.657 30.7919 47.3275 30.6554 47.0846 30.4125C46.8417 30.1696 46.7052 29.8401 46.7052 29.4965V24.318V22.6165L45.5029 23.8206L32.9266 36.417L32.925 36.4186C32.8045 36.54 32.6613 36.6364 32.5034 36.7022C32.3455 36.7679 32.1762 36.8018 32.0052 36.8018C31.8342 36.8018 31.6649 36.7679 31.507 36.7022C31.3492 36.6364 31.2059 36.54 31.0855 36.4186L31.0842 36.4173L24.5061 29.8192L24.0078 29.3194L23.5093 29.8189L12.9323 40.4159L12.9308 40.4174C12.8103 40.5389 12.667 40.6352 12.5092 40.701C12.3513 40.7668 12.182 40.8006 12.011 40.8006C11.84 40.8006 11.6707 40.7668 11.5128 40.701C11.355 40.6352 11.2117 40.5389 11.0913 40.4174L11.0913 40.4174L11.0872 40.4134C10.9658 40.2929 10.8694 40.1497 10.8036 39.9918C10.7379 39.834 10.704 39.6646 10.704 39.4936C10.704 39.3226 10.7379 39.1533 10.8036 38.9954C10.8694 38.8376 10.9658 38.6943 11.0872 38.5739L11.0892 38.5719L23.0858 26.5753L23.0878 26.5733C23.2082 26.4519 23.3515 26.3555 23.5094 26.2897C23.6672 26.224 23.8365 26.1901 24.0075 26.1901C24.1785 26.1901 24.3479 26.224 24.5057 26.2897C24.6636 26.3555 24.8068 26.4519 24.9273 26.5733L24.9286 26.5746L31.5066 33.1727L32.0045 33.672L32.503 33.1734L43.6798 21.9967L44.8816 20.7948H43.182H38.0035C37.6599 20.7948 37.3304 20.6583 37.0875 20.4154C36.8446 20.1725 36.7081 19.843 36.7081 19.4994C36.7081 19.1559 36.8446 18.8264 37.0875 18.5834C37.3304 18.3405 37.6599 18.204 38.0035 18.204H47.9959C48.1638 18.2065 48.3297 18.2417 48.4843 18.3076L48.4843 18.3076L48.4903 18.3101C48.8069 18.4416 49.0584 18.6931 49.1899 19.0097Z" fill="#2E2D2D" stroke="#2E2D2D" stroke-width="1.40803"/>
</svg>
