<svg width="60" height="60" viewBox="0 0 60 60" fill="none" xmlns="http://www.w3.org/2000/svg">
<path d="M22.9831 21.3073L23.0233 21.3015L23.0413 21.265L27.9235 11.366C27.9235 11.366 27.9235 11.366 27.9235 11.366C28.777 9.63733 31.2298 9.65812 32.0765 11.3661L36.9587 21.265L36.9767 21.3015L37.0169 21.3073L47.9402 22.8998L47.9403 22.8998C49.8357 23.1748 50.5955 25.5117 49.2208 26.8502L49.2747 26.9056L49.2208 26.8502L41.318 34.5512L41.2889 34.5795L41.2958 34.6196L43.1649 45.498C43.1649 45.4981 43.1649 45.4981 43.1649 45.4981C43.4903 47.4002 41.4867 48.819 39.8079 47.9362L39.7719 48.0046L39.8079 47.9362L30.036 42.7998L30 42.7809L29.964 42.7998L20.1921 47.9362L20.1919 47.9363C18.5136 48.8261 16.5096 47.4007 16.8351 45.4981C16.8351 45.4981 16.8351 45.4981 16.8351 45.498L18.7042 34.6196L18.7111 34.5795L18.682 34.5512L10.7792 26.8502L10.7792 26.8502C9.40451 25.5117 10.1643 23.1748 12.0597 22.8998L12.0598 22.8998L22.9831 21.3073Z" fill="#2E2D2D" stroke="#2E2D2D" stroke-width="0.154582"/>
</svg>
