<svg width="29" height="28" viewBox="0 0 29 28" fill="none" xmlns="http://www.w3.org/2000/svg">
<path fill-rule="evenodd" clip-rule="evenodd" d="M22.8984 7.08105C22.5756 7.08105 22.2873 7.2079 22.0797 7.41546L11.3672 18.1395L7.57341 14.3457C7.36584 14.1266 7.07756 13.9998 6.75469 13.9998C6.12047 13.9998 5.60156 14.5187 5.60156 15.1529C5.60156 15.4758 5.72841 15.7641 5.93597 15.9716L10.5485 20.5841C10.756 20.7917 11.0443 20.9186 11.3672 20.9186C11.6901 20.9186 11.9783 20.7917 12.1859 20.5841L23.7172 9.0529C23.9247 8.84534 24.0516 8.55705 24.0516 8.23418C24.0516 7.59996 23.5327 7.08105 22.8984 7.08105Z" fill="white"/>
</svg>
