<svg width="60" height="60" viewBox="0 0 60 60" fill="none" xmlns="http://www.w3.org/2000/svg">
<path d="M45.1737 16.5979L45.1737 16.5979L30.1723 10.3473L45.1737 16.5979ZM45.1737 16.5979C46.5402 17.166 47.4385 18.5095 47.4385 19.999C47.4385 37.2605 36.839 46.8723 30.1644 49.6527C29.2585 50.0289 28.2373 50.0289 27.3314 49.6527C18.9966 46.1786 10.0651 35.4833 10.0651 19.999C10.0651 18.5096 10.9634 17.166 12.3376 16.5979L12.3378 16.5979M45.1737 16.5979L12.3378 16.5979M12.3378 16.5979L27.3391 10.3473L12.3378 16.5979ZM28.6945 44.8687L28.6945 44.9738L28.7886 44.927C36.1329 41.2744 42.3021 32.6803 42.5605 20.8287L42.5614 20.7842L42.5204 20.7671L28.7769 15.04L28.6867 15.0024L28.6867 15.1001L28.6945 44.8687ZM28.7557 10.0651C29.2419 10.0651 29.7232 10.161 30.1722 10.3473H27.3392C27.7883 10.161 28.2696 10.0651 28.7557 10.0651Z" fill="#2E2D2D" stroke="#2E2D2D" stroke-width="0.130252"/>
</svg>
