<svg width="60" height="60" viewBox="0 0 60 60" fill="none" xmlns="http://www.w3.org/2000/svg">
<path d="M50.948 21.4248L47.873 26.0498C49.3559 29.0075 50.0819 32.2869 49.9859 35.5941C49.89 38.9014 48.975 42.1331 47.323 44.9998H12.673C10.5259 41.2751 9.63623 36.9576 10.1358 32.6875C10.6355 28.4174 12.4978 24.4219 15.4467 21.2934C18.3956 18.1649 22.2742 16.0699 26.5073 15.3191C30.7405 14.5682 35.103 15.2014 38.948 17.1248L43.573 14.0498C38.8642 11.0304 33.2788 9.67733 27.7102 10.2072C22.1416 10.737 16.9116 13.1191 12.8567 16.9723C8.80184 20.8256 6.15639 25.9275 5.34353 31.4618C4.53067 36.9962 5.59737 42.6433 8.37299 47.4998C8.80927 48.2555 9.43571 48.8839 10.1901 49.3224C10.9444 49.761 11.8004 49.9945 12.673 49.9998H47.298C48.179 50.0033 49.0454 49.7739 49.8093 49.3349C50.5731 48.8959 51.2075 48.2628 51.648 47.4998C53.9514 43.5096 55.1074 38.9605 54.9883 34.3547C54.8692 29.7489 53.4796 25.2656 50.973 21.3998L50.948 21.4248Z" fill="#2E2D2D"/>
<path d="M26.4742 38.5248C26.9386 38.9897 27.4901 39.3585 28.097 39.6101C28.704 39.8617 29.3547 39.9912 30.0117 39.9912C30.6688 39.9912 31.3195 39.8617 31.9264 39.6101C32.5334 39.3585 33.0849 38.9897 33.5492 38.5248L47.6992 17.2998L26.4742 31.4498C26.0094 31.9142 25.6406 32.4656 25.3889 33.0726C25.1373 33.6796 25.0078 34.3302 25.0078 34.9873C25.0078 35.6444 25.1373 36.295 25.3889 36.902C25.6406 37.509 26.0094 38.0604 26.4742 38.5248Z" fill="black"/>
</svg>
