<svg width="41" height="40" viewBox="0 0 41 40" fill="none" xmlns="http://www.w3.org/2000/svg">
<path fill-rule="evenodd" clip-rule="evenodd" d="M0.0078125 20C0.0078125 8.9543 8.96355 0 20.011 0C31.0585 0 40.0142 8.9543 40.0142 20C40.0142 31.0457 31.0585 40 20.011 40C8.96355 40 0.0078125 31.0457 0.0078125 20Z" fill="#2E2D2D"/>
<path d="M27.7849 15.0832L29.0109 13.6742C29.3658 13.2926 29.4625 12.999 29.4948 12.8523C28.5269 13.3806 27.6235 13.5568 27.0428 13.5568H26.817L26.6879 13.4393C25.9136 12.8229 24.9457 12.5 23.9133 12.5C21.6548 12.5 19.8804 14.2025 19.8804 16.1693C19.8804 16.2867 19.8804 16.4628 19.9126 16.5802L20.0094 17.1673L19.3319 17.138C15.2022 17.0205 11.8146 13.7916 11.2661 13.2339C10.3627 14.7016 10.8789 16.1106 11.4274 16.9912L12.5243 18.635L10.7821 17.7544C10.8144 18.9873 11.3306 19.956 12.3308 20.6605L13.2019 21.2476L12.3308 21.5705C12.8792 23.0675 14.1052 23.684 15.0086 23.9188L16.2024 24.2123L15.0731 24.9168C13.2664 26.091 11.008 26.0029 10.0078 25.9149C12.0404 27.2065 14.4601 27.5 16.1378 27.5C17.3961 27.5 18.3317 27.3826 18.5576 27.2945C27.5913 25.3571 28.0107 18.0186 28.0107 16.5509V16.3454L28.2043 16.228C29.3012 15.2887 29.7529 14.7896 30.011 14.4961C29.9142 14.5254 29.7852 14.5841 29.6561 14.6135L27.7849 15.0832Z" fill="white"/>
</svg>
