<svg width="33" height="32" viewBox="0 0 33 32" fill="none" xmlns="http://www.w3.org/2000/svg">
<path fill-rule="evenodd" clip-rule="evenodd" d="M0.226562 16C0.226562 7.16344 7.39001 0 16.2266 0C25.0631 0 32.2266 7.16344 32.2266 16C32.2266 24.8366 25.0631 32 16.2266 32C7.39001 32 0.226562 24.8366 0.226562 16Z" fill="white"/>
<path d="M22.4459 12.0665L23.4266 10.9393C23.7104 10.6341 23.7879 10.3992 23.8137 10.2818C23.0395 10.7045 22.3169 10.8454 21.8524 10.8454H21.6717L21.5685 10.7515C20.9491 10.2583 20.1749 10 19.3491 10C17.5427 10 16.1233 11.362 16.1233 12.9354C16.1233 13.0294 16.1233 13.1703 16.1491 13.2642L16.2266 13.7339L15.6846 13.7104C12.3814 13.6164 9.67172 11.0333 9.23301 10.5871C8.51043 11.7613 8.92334 12.8885 9.36205 13.593L10.2395 14.908L8.84592 14.2035C8.87172 15.1898 9.28463 15.9648 10.0846 16.5284L10.7814 16.998L10.0846 17.2564C10.5233 18.454 11.504 18.9472 12.2266 19.135L13.1814 19.3699L12.2782 19.9335C10.833 20.8728 9.02656 20.8024 8.22656 20.7319C9.85237 21.7652 11.7879 22 13.1298 22C14.1362 22 14.8846 21.9061 15.0653 21.8356C22.2911 20.2857 22.6266 14.4149 22.6266 13.2407V13.0763L22.7814 12.9824C23.6588 12.2309 24.0201 11.8317 24.2266 11.5969C24.1491 11.6204 24.0459 11.6673 23.9427 11.6908L22.4459 12.0665Z" fill="#2E2D2D"/>
</svg>
