<svg width="8" height="15" viewBox="0 0 8 15" fill="none" xmlns="http://www.w3.org/2000/svg">
<path d="M7.00479 1.28889L7.0049 1.289L7.0094 1.28375C7.18976 1.07333 7.19028 0.743775 6.9797 0.533193C6.88562 0.439117 6.73796 0.379884 6.61113 0.379884C6.45236 0.379884 6.3287 0.447061 6.22069 0.555066L6.22064 0.55501L6.21729 0.558582L0.705207 6.44252C0.705152 6.44257 0.705098 6.44263 0.705043 6.44269C0.277311 6.89578 0.281126 7.64024 0.702473 8.11115L0.702439 8.11118L0.704982 8.11389L6.21748 13.9764L6.21743 13.9764L6.22069 13.9797C6.421 14.18 6.75721 14.2241 6.9797 14.0016C7.17947 13.8018 7.22383 13.4668 7.00333 13.2443L1.49578 7.38709C1.43079 7.30614 1.44359 7.20019 1.48908 7.1547L1.48913 7.15475L1.49229 7.15139L7.00479 1.28889Z" fill="#727274" stroke="#727274" stroke-width="0.3"/>
</svg>
