<svg width="32" height="32" viewBox="0 0 32 32" fill="none" xmlns="http://www.w3.org/2000/svg">
<path d="M16.1127 31.7723C24.8864 31.7723 31.9989 24.6598 31.9989 15.8862C31.9989 7.11248 24.8864 0 16.1127 0C7.33904 0 0.226562 7.11248 0.226562 15.8862C0.226562 24.6598 7.33904 31.7723 16.1127 31.7723Z" fill="white"/>
<path d="M23.8911 11.8802C23.7104 11.1336 23.1685 10.553 22.4717 10.3594C21.233 10 16.2266 10 16.2266 10C16.2266 10 11.2201 10 9.9814 10.3594C9.28463 10.553 8.74269 11.1336 8.56205 11.8802C8.22656 13.235 8.22656 16 8.22656 16C8.22656 16 8.22656 18.7926 8.56205 20.1198C8.74269 20.8664 9.28463 21.447 9.9814 21.6406C11.2201 22 16.2266 22 16.2266 22C16.2266 22 21.233 22 22.4717 21.6406C23.1685 21.447 23.7104 20.8664 23.8911 20.1198C24.2266 18.7926 24.2266 16 24.2266 16C24.2266 16 24.2266 13.235 23.8911 11.8802ZM14.6266 18.5714V13.4286L18.7814 16L14.6266 18.5714Z" fill="#2E2D2D"/>
</svg>
